<svg width="73" height="25" viewBox="0 0 73 25" fill="none" xmlns="http://www.w3.org/2000/svg">
<g opacity="0.5" clip-path="url(#clip0_546_8054)">
<mask id="mask0_546_8054" style="mask-type:luminance" maskUnits="userSpaceOnUse" x="-1" y="0" width="26" height="25">
<path d="M-0.00415039 12.4C-0.00415039 19.2 5.49585 24.8 12.3958 24.8C19.2958 24.8 24.7958 19.3 24.7958 12.4C24.7958 5.5 19.1959 0 12.3958 0C5.59585 0 -0.00415039 5.5 -0.00415039 12.4Z" fill="white"/>
</mask>
<g mask="url(#mask0_546_8054)">
<path d="M24.7958 4.4H-0.00415039V0H24.7958V4.4ZM24.7958 20.3H-0.00415039V24.7H24.7958V20.3ZM24.7958 9.7H-0.00415039V15H24.7958V9.7Z" fill="white"/>
</g>
<path d="M53.6958 8.50004C53.6958 8.90004 53.9958 9.20004 54.3958 9.20004C54.7958 9.20004 55.0958 8.90004 55.1958 8.50004C55.1958 8.10004 54.8958 7.80004 54.4958 7.80004C54.0958 7.70004 53.6958 8.00004 53.6958 8.50004Z" fill="white"/>
<path d="M57.5958 10.9L57.4958 10.6C57.4958 10.5 57.3958 10.4 57.2958 10.4H56.7958C56.6958 10.4 56.5958 10.5 56.5958 10.6V16.8C56.5958 16.9 56.6958 17 56.7958 17H57.6958C57.7958 17 57.8958 16.9 57.8958 16.8V11.8C58.2958 11.6 58.7958 11.5 59.2958 11.5C60.0958 11.5 60.2958 11.8 60.2958 12.3V16.8C60.2958 16.9 60.3958 17 60.4958 17H61.3958C61.4958 17 61.5958 16.9 61.5958 16.8V12.4C61.5958 11 60.7958 10.3 59.2958 10.3C58.6958 10.4 58.0958 10.6 57.5958 10.9Z" fill="white"/>
<path d="M53.9959 10.5H54.7959C54.8959 10.5 54.9959 10.6 54.9959 10.7V16.9C54.9959 17 54.8959 17.1 54.7959 17.1H53.9959C53.8959 17.1 53.7959 17 53.7959 16.9V10.7C53.7959 10.6 53.8959 10.5 53.9959 10.5Z" fill="white"/>
<path d="M51.1959 7.40002H51.9958C52.0958 7.40002 52.1959 7.50002 52.1959 7.60002V16.8C52.1959 16.9 52.0958 17 51.9958 17H51.1959C51.0959 17 50.9958 16.9 50.9958 16.8V7.70002C50.9958 7.60002 51.0959 7.50002 51.1959 7.40002Z" fill="white"/>
<path d="M39.2958 13.2C39.3958 12.3 39.5958 11.6 40.7958 11.6C41.7958 11.6 41.9958 12.2 41.9958 13.2V13.3L39.2958 13.2ZM37.9958 13.8C37.9958 14.7 37.9958 17.2 40.7958 17.2C41.4958 17.2 42.2958 17.2 42.9958 16.9L43.0958 16.7V16L42.9958 15.9H42.7958C42.0958 16 41.4958 16.1 40.7958 16.1C39.5958 16.1 39.3958 15.4 39.2958 14.6V14.5H43.0958C43.1958 14.5 43.2958 14.4 43.2958 14.3V13.9C43.2958 12.2 43.0959 10.5 40.6959 10.5C37.9959 10.4 37.9958 13 37.9958 13.8Z" fill="white"/>
<path d="M45.6959 13.2C45.7959 12.3 45.9959 11.6 47.1959 11.6C48.1959 11.6 48.3959 12.2 48.3959 13.2V13.3L45.6959 13.2ZM44.3959 13.8C44.3959 14.7 44.3959 17.2 47.1959 17.2C47.8959 17.2 48.5959 17.2 49.2959 16.9L49.3959 16.7V16L49.2959 15.8H49.0959C48.3959 15.9 47.7959 16 47.0959 16C45.8959 16 45.6959 15.3 45.5959 14.5V14.4H49.3959C49.4959 14.4 49.5959 14.3 49.5959 14.2V13.8C49.5959 12.1 49.3959 10.4 46.9959 10.4C44.2959 10.4 44.2959 13 44.3959 13.8Z" fill="white"/>
<path d="M64.0959 13.2C64.1959 12.3 64.3959 11.6 65.5959 11.6C66.5959 11.6 66.7959 12.2 66.7959 13.2V13.3L64.0959 13.2ZM62.7959 13.8C62.7959 14.7 62.7959 17.2 65.5959 17.2C66.2959 17.2 66.9959 17.2 67.6959 16.9L67.7959 16.7V16L67.6959 15.8H67.4959C66.8959 16 66.1959 16 65.5959 16C64.3959 16 64.1959 15.3 64.0959 14.5V14.4H67.8959C67.9959 14.4 68.0959 14.3 68.0959 14.2V13.8C68.0959 12.1 67.8959 10.4 65.4959 10.4C62.7959 10.3 62.7959 12.9 62.7959 13.8Z" fill="white"/>
<path d="M33.7958 12.7C35.0958 12.7 35.5958 13.1 35.5958 14.2C35.5958 15 35.3958 15.8 33.7958 15.8H31.8958V12.7H33.7958ZM33.6959 8.69995C35.0959 8.69995 35.2958 9.39995 35.2958 10.1C35.2958 11 34.7958 11.5 33.7958 11.5H31.7958V8.69995H33.6959ZM30.6959 7.39995C30.5959 7.39995 30.4958 7.49995 30.4958 7.59995V16.8C30.4958 16.9 30.5959 17 30.6959 17H33.6959C35.8959 17 36.9958 16 36.9958 14.1C37.0958 13.1 36.5959 12.2 35.6959 11.8C36.2959 11.4 36.6959 10.7 36.6959 9.89995C36.6959 8.89995 36.2958 7.19995 33.5958 7.19995L30.6959 7.39995Z" fill="white"/>
<path fill-rule="evenodd" clip-rule="evenodd" d="M69.3959 10.4V10.6H69.7959V11.9H69.9959V10.6H70.3959V10.4H69.3959Z" fill="white"/>
<path fill-rule="evenodd" clip-rule="evenodd" d="M71.7958 10.4L71.3958 11.4L70.9958 10.4H70.6958V11.9H70.8958V10.8L71.2958 11.7H71.4958L71.8958 10.8V12H72.0958V10.4H71.7958Z" fill="white"/>
</g>
<defs>
<clipPath id="clip0_546_8054">
<rect width="72.1" height="24.8" fill="white" transform="translate(-0.00415039)"/>
</clipPath>
</defs>
</svg>
