<svg width="358" height="81" viewBox="0 0 358 81" fill="none" xmlns="http://www.w3.org/2000/svg">
<path d="M222.978 79.5123C223.101 79.5123 223.211 79.5906 223.293 79.7472C223.375 79.9038 223.416 80.0735 223.416 80.2562C223.416 80.4389 223.389 80.5955 223.32 80.7651C223.252 80.9217 223.142 81 222.978 81C220.911 81 219.213 80.8695 217.913 80.6216C215.259 80.0889 212.985 78.9389 212.985 75.9105V70.1033C212.068 70.3382 211.041 70.5339 209.905 70.6644C205.961 71.1627 201.887 70.8557 198.255 69.1245C195.805 67.9631 193.67 66.3841 191.822 64.3874C189.973 62.3908 188.522 60.0679 187.468 57.3926C184.295 49.3377 185.938 39.6333 191.822 33.2764C193.67 31.2797 195.805 29.7007 198.255 28.5392C202.693 26.4358 208.181 26.2422 212.889 27.5344C214.696 28.0303 216.133 28.6306 217.201 29.3353C218.283 30.04 219.049 30.7838 219.501 31.5538C219.953 32.3237 220.185 32.9893 220.185 33.5374C220.185 35.3371 218.05 37.8225 216.407 38.3919C215.955 38.5485 215.723 38.3136 215.723 37.6872C215.723 36.6171 215.449 35.6384 214.888 34.751C214.326 33.8636 213.601 33.0937 212.711 32.4412C209.572 30.1395 205.13 29.549 201.801 31.7365C200.391 32.663 199.132 33.955 198.036 35.5862C194.165 41.399 193.402 49.564 195.394 56.1921C196.051 58.4236 196.941 60.3419 198.036 61.934C200.789 65.9678 205.13 68.1237 209.85 66.3971C211.027 65.9665 212.081 65.4053 212.985 64.7398V51.8203C212.985 51.5854 212.958 51.2592 212.889 50.8416C212.751 50.0006 212.419 49.1673 211.712 48.597C211.356 48.2968 210.877 48.1533 210.247 48.1533C209.66 48.1533 209.624 46.6656 210.247 46.6656C212.273 46.6656 213.943 46.7961 215.244 47.044C216.544 47.305 217.557 47.6443 218.283 48.075C219.734 48.9363 220.185 50.3196 220.185 51.8073V75.8583C220.185 76.0932 220.213 76.4195 220.281 76.8371C220.35 77.2547 220.473 77.6462 220.651 78.0246C220.843 78.4031 221.116 78.7293 221.486 79.0295C221.856 79.3296 222.362 79.4732 222.978 79.4732V79.5123Z" fill="white"/>
<path d="M252.392 67.9651C253.026 67.9651 253.07 69.6086 252.392 69.6086C250.426 69.6086 248.83 69.4933 247.633 69.277C246.421 69.0608 245.475 68.758 244.781 68.3543C243.548 67.6379 242.95 66.4989 242.859 65.0817L242.785 63.3805C242.298 64.1158 241.618 64.9231 240.746 65.8025C239.874 66.682 238.721 67.5326 237.288 68.3543C233.513 70.3751 228.94 69.2416 227.06 65.2403C225.503 61.9253 226.64 57.2611 228.834 54.5141C231.157 51.6043 234.5 49.6213 238.086 48.7618C239.83 48.3437 241.396 48.1418 242.785 48.1418C242.785 47.1327 242.756 46.1811 242.682 45.2585C242.513 43.1529 241.922 40.5441 239.371 40.5441C236.042 40.5441 234.952 43.9375 234.952 46.7722C234.952 47.1182 234.627 47.2912 233.977 47.2912C232.015 47.2912 228.716 46.0154 228.716 43.6438C228.716 40.2854 233.937 38.8536 236.46 38.3672C237.731 38.1221 238.869 38.0068 239.844 38.0068C241.81 38.0068 243.406 38.1654 244.648 38.4681C245.874 38.7709 246.835 39.189 247.5 39.708C248.728 40.666 249.286 42.1075 249.377 43.6438V64.0004C249.377 64.2599 249.407 64.6203 249.48 65.0817C249.628 66.0044 250.072 66.8406 250.811 67.5037C251.195 67.8353 251.712 67.9939 252.392 67.9939V67.9651ZM237.022 63.4526C237.864 63.4526 238.632 63.294 239.298 62.9624C239.963 62.6308 240.539 62.2416 241.012 61.7802C241.485 61.3189 241.854 60.8143 242.15 60.2664C242.446 59.7186 242.652 59.2284 242.785 58.7815V51.155C239.656 51.155 236.378 52.8624 234.494 55.3647C233.8 56.2874 233.341 57.3398 233.12 58.522C232.653 61.1934 234.269 63.4526 237.007 63.4526H237.022Z" fill="white"/>
<path d="M304.094 67.9648C304.227 67.9648 304.345 68.0513 304.434 68.2243C304.523 68.3973 304.582 68.5848 304.597 68.7866C304.611 68.9884 304.597 69.1759 304.493 69.3489C304.404 69.5219 304.271 69.6084 304.094 69.6084C301.862 69.6084 300.118 69.4642 298.862 69.1758C297.606 68.8875 296.66 68.5127 296.01 68.0369C294.71 67.0861 294.561 65.4785 294.561 63.9714V50.3618C294.561 48.4011 294.147 46.8729 293.32 45.7772C292.492 44.6816 291.458 44.1337 290.201 44.1337C287.78 44.1337 285.947 46.9987 284.97 48.9057V63.9569C284.97 64.7702 285.133 65.6122 285.472 66.3501C285.679 66.7682 285.96 67.1287 286.344 67.4602C286.728 67.7918 287.246 67.9504 287.925 67.9504C288.058 67.9504 288.177 68.0369 288.265 68.2099C288.354 68.3829 288.398 68.5703 288.398 68.7722C288.398 68.974 288.369 69.1614 288.295 69.3344C288.236 69.5074 288.103 69.5939 287.925 69.5939C285.694 69.5939 283.95 69.4498 282.693 69.1614C281.437 68.8731 280.491 68.4983 279.841 68.0225C278.541 67.0717 278.393 65.4641 278.393 63.9569V50.3474C278.393 48.3867 277.964 46.8585 277.122 45.7628C276.279 44.6671 275.245 44.1193 274.033 44.1193C271.751 44.1193 269.811 46.8377 268.89 48.675C268.55 49.3526 268.387 49.8428 268.387 50.1456V63.9569C268.387 64.2164 268.417 64.5769 268.491 65.0382C268.639 65.9674 268.998 66.8017 269.762 67.4602C270.146 67.7918 270.663 67.9504 271.343 67.9504C271.476 67.9504 271.594 68.0369 271.683 68.2099C271.772 68.3829 271.831 68.5703 271.845 68.7722C271.86 68.974 271.845 69.1614 271.742 69.3344C271.653 69.5074 271.52 69.5939 271.343 69.5939H258.869C258.101 69.5939 258.183 67.9504 258.869 67.9504C259.534 67.9504 260.066 67.7918 260.451 67.4602C261.219 66.7971 261.603 65.9609 261.722 65.0382C261.795 64.5769 261.825 64.2164 261.825 63.9569V43.6003C261.825 42.3073 261.449 40.9586 260.451 40.097C260.066 39.7654 259.549 39.6068 258.869 39.6068C258.174 39.6068 258.107 37.9633 258.869 37.9633C260.79 37.9633 262.372 38.0786 263.599 38.2949C264.825 38.5111 265.786 38.8139 266.451 39.2175C267.116 39.6068 267.589 40.0826 267.855 40.6304C268.461 41.8779 268.357 43.3003 268.402 44.6527C269.219 43.0589 270.223 41.5339 271.491 40.27C272.156 39.6068 272.91 39.0734 273.737 38.6265C274.565 38.1939 275.466 37.9777 276.457 37.9777C278.688 37.9777 280.462 38.5832 281.762 39.8086C283.063 41.0341 283.95 42.7497 284.452 44.9843C285.737 42.4783 287.413 40.1342 289.861 38.6841C290.689 38.2084 291.62 37.9633 292.64 37.9633C295.463 37.9633 297.532 38.9148 298.847 40.8034C300.163 42.7064 300.916 45.3303 301.094 48.6894H301.168V63.9425C301.168 64.7558 301.331 65.5979 301.67 66.3357C301.877 66.7538 302.158 67.1142 302.542 67.4458C302.926 67.7774 303.444 67.936 304.124 67.936L304.094 67.9648Z" fill="white"/>
<path d="M330.62 64.3612C331.54 63.8224 332.387 65.8201 331.359 66.3219C331.137 66.4516 330.738 66.7255 330.191 67.1436C329.629 67.5617 328.92 67.9798 328.078 68.4267C327.235 68.8592 326.23 69.2485 325.092 69.5657C323.954 69.8972 322.713 70.0558 321.368 70.0558C319.402 70.0558 317.57 69.6233 315.87 68.7439C312.471 66.985 309.869 63.9863 308.392 60.0361C307.653 58.0754 307.283 55.9849 307.283 53.7503C307.283 49.9553 308.48 46.0998 310.845 43.1251C311.968 41.7122 313.283 40.53 314.806 39.5929C316.328 38.6558 317.954 38.0359 319.698 37.7332C320.23 37.6034 320.969 37.5313 321.915 37.5313C325.314 37.5313 327.812 38.2522 329.423 39.6938C331.034 41.1355 331.832 42.88 331.832 44.9272C331.832 49.257 328.859 52.631 325.491 54.9613C323.762 56.1579 322.018 57.1383 320.23 57.9024C318.441 58.6665 317.008 59.272 315.929 59.7045C317.603 63.6971 320.964 66.1705 325.329 65.8893C326.358 65.8136 330.629 64.3517 330.62 64.3612ZM321.9 40.5445C320.821 40.5445 319.86 40.8905 319.018 41.5536C318.161 42.2312 317.436 43.1539 316.801 44.3361C315.559 46.7005 314.85 50.0164 314.85 53.7647C314.85 54.8604 314.968 56.0138 315.19 57.2392C316.402 56.6337 317.629 55.9561 318.885 55.2497C320.141 54.5288 321.264 53.7071 322.269 52.77C324.454 50.7331 325.728 48.0312 325.728 45.0137C325.728 43.7883 325.388 42.7502 324.693 41.8708C323.999 40.9914 323.067 40.5589 321.915 40.5589L321.9 40.5445Z" fill="white"/>
<path d="M352.369 52.8849C353.581 53.995 354.601 55.0475 355.428 56.0278C356.256 57.0082 356.892 57.9741 357.335 58.94C357.778 59.906 358 60.944 358 62.0829C358 64.4043 356.686 66.4525 354.882 67.8064C353.921 68.5273 352.783 69.0895 351.497 69.4788C350.196 69.868 348.792 70.0699 347.27 70.0699C345.571 70.0699 344.093 69.9113 342.836 69.6085C340.35 69.0094 338.766 68.021 337.93 66.8261C337.531 66.235 337.324 65.6439 337.324 65.024C337.324 63.1801 339.35 60.4146 341.078 60.0213C341.521 59.906 341.728 60.2087 341.684 60.9007C341.585 62.5671 342.578 64.1146 343.694 65.2546C344.314 65.889 345.009 66.3791 345.777 66.7251C347.902 67.7003 350.864 66.6396 350.995 64.0436C351.145 61.0533 348.29 58.1909 346.369 56.3162C345.157 55.134 344.122 54.0815 343.25 53.1444C342.378 52.2073 341.669 51.3135 341.137 50.4629C340.605 49.6123 340.191 48.7329 339.925 47.839C338.999 44.7271 339.748 41.7549 342.275 39.6935C343.073 39.0447 343.974 38.5257 344.965 38.1509C345.955 37.776 346.915 37.5742 347.847 37.5309C350.349 37.3966 353.074 37.665 355.266 39.0015C356.921 40.0106 357.778 41.3514 357.778 42.5624C357.778 44.0612 356.557 45.5833 355.532 46.5559C354.97 47.0749 354.468 47.4065 354.024 47.5363C353.581 47.666 353.374 47.3633 353.418 46.6136C353.463 45.9216 353.344 45.1575 353.049 44.3501C352.294 42.2878 350.281 39.826 347.832 40.5152C347.255 40.6882 346.738 41.0342 346.295 41.5244C345.407 42.5345 345.231 44.1067 346.029 46.0081C347.129 48.6717 350.388 51.0243 352.369 52.8849Z" fill="white"/>
<path d="M23.635 42.3402C27.6631 46.2885 30.6619 49.7582 32.3029 52.869C33.9222 55.9953 33.8831 59.7305 32.2284 62.8445C29.1707 68.4992 22.4468 70.6364 16.4291 70.6364C12.019 70.6364 7.0399 70.0864 3.31533 67.4508C-0.572742 64.7768 -1.15137 61.0621 2.16657 57.6548C2.9252 56.8758 4.55361 55.734 4.55361 57.6249C4.55361 61.1839 9.22247 63.9299 11.9982 65.0429C14.9383 66.2219 18.9457 66.4042 21.4568 64.1157C24.718 61.1437 21.8703 56.4448 19.7561 53.7663C16.2978 49.3853 11.5655 46.2855 7.9999 41.9962C4.86167 38.1911 3.18027 34.6475 2.70365 31.3627C1.97818 26.657 3.32553 22.5381 6.97049 19.4431C12.0761 15.158 19.4745 14.8268 25.6491 16.6015C27.7825 17.2147 29.4982 17.9624 30.811 18.8598C33.4007 20.6203 35.4162 23.4957 33.5263 26.4872C32.6744 27.8581 31.4649 29.5648 29.8861 30.1364C29.349 30.3308 29.0804 30.0317 29.0804 29.254C29.0804 26.5866 27.5367 24.3 25.4999 22.7183C22.6789 20.5675 16.8178 18.474 13.9526 21.5817C11.7462 23.9748 12.1905 27.6037 13.2812 30.4056C15.1398 35.1799 20.1454 38.9197 23.635 42.3402Z" fill="white"/>
<path d="M64.5123 68.6861C65.6178 68.6861 65.6178 70.4722 64.5261 70.4002C62.5117 70.4002 60.8862 70.2896 59.6497 70.0546C57.0952 69.5977 54.9874 68.509 54.7733 65.6865L54.7039 63.4333C54.3426 64.1106 53.8981 64.8709 53.3701 65.6865C51.8269 68.0706 49.4741 70.3864 46.4793 70.3864C40.1932 70.3864 38.1208 64.6886 37.8379 59.1896H37.7684V43.2791C37.7684 41.9311 37.3951 40.5446 36.3652 39.6297C35.9762 39.2841 35.4344 39.1183 34.7537 39.1183C34.1101 39.1183 34.0517 37.4042 34.7398 37.4042C36.9765 37.4042 38.7548 37.5563 40.0607 37.8465C43.1039 38.523 44.4787 40.1669 44.4787 43.2929V57.5308C44.4787 59.5904 44.9094 61.1663 45.7568 62.286C46.6043 63.4056 47.674 63.9586 48.9661 63.9586C51.296 63.9586 53.3216 61.1392 54.2037 59.231C54.5233 58.5399 54.69 58.0422 54.69 57.7243V43.2791C54.69 41.3961 53.8585 39.1044 51.6752 39.1044C51.0316 39.1044 50.9732 37.3904 51.6613 37.3904C53.8981 37.3904 55.6764 37.5424 56.9823 37.8327C60.083 38.5219 61.4002 40.0835 61.4002 43.2514V64.4839C61.4002 67.5987 62.7175 68.2676 64.5123 68.6861Z" fill="white"/>
<path d="M83.7667 68.6864C84.4388 68.6864 84.5353 70.4004 83.7667 70.4004H71.0131C70.2248 70.4004 70.3137 68.6864 71.0131 68.6864C71.6938 68.6864 72.2356 68.5205 72.6246 68.1749C73.6556 67.259 74.0278 65.875 74.0278 64.5256V26.5809C74.0278 26.3044 74 25.9312 73.9306 25.4612C73.7025 23.873 72.7394 22.3648 71.0131 22.3648C70.3137 22.3648 70.2248 20.6507 71.0131 20.6507C73.2498 20.6507 75.0281 20.8028 76.334 21.0931C78.0496 21.4744 80.0889 22.2152 80.5158 24.1618C80.6686 24.9083 80.752 25.7238 80.752 26.5809V64.5256C80.752 65.8739 81.1251 67.2598 82.1552 68.1749C82.5442 68.5205 83.086 68.6864 83.7667 68.6864Z" fill="white"/>
<path d="M103.648 65.2028C104.292 64.3698 106.101 65.9532 105.621 66.7648C105.163 67.5389 104.663 68.1609 104.107 68.6447C101.694 70.7455 97.8125 70.8681 94.9514 69.7368C91.6682 68.4384 90.8808 65.4037 90.8808 62.1202V40.8877H85.1847C83.3306 40.8877 84.6329 38.6665 85.3237 38.1231C85.921 37.6393 86.5323 37.4043 87.1714 37.4043H90.8808V34.2664C90.8808 32.3872 90.0393 30.1056 87.8661 30.1056C87.2183 30.1056 87.1433 28.3915 87.8522 28.3915C90.0889 28.3915 91.8672 28.5436 93.1732 28.8339C96.212 29.5094 97.5911 31.1252 97.5911 34.2526V37.3905H102.662C103.162 37.3905 103.412 37.6393 103.412 38.1369V40.1136C103.412 40.6113 103.162 40.8601 102.662 40.8601H97.5911V63.3228C97.5911 64.6341 97.8551 65.9784 98.897 66.8615C99.8431 67.6943 101.733 67.4789 102.537 66.5574C102.632 66.4482 103.645 65.1941 103.648 65.2028Z" fill="white"/>
<path d="M134.967 68.6866C135.61 68.6866 135.669 70.4007 134.98 70.4007C132.966 70.4007 131.341 70.2901 130.104 70.0551C128.868 69.8339 127.895 69.516 127.187 69.1013C125.222 67.9515 125.158 65.8946 125.158 63.9176C124.658 64.6917 123.963 65.5349 123.06 66.4473C122.171 67.3596 120.99 68.2443 119.532 69.1151C115.631 71.2518 110.988 70.0006 109.07 65.8667C108.403 64.4291 108.237 62.6044 108.556 60.3789C109.146 56.2688 111.734 52.938 115.211 50.827C116.864 49.8318 118.573 49.113 120.351 48.6706C122.13 48.2421 123.741 48.0209 125.158 48.0209C125.158 46.9704 125.13 45.9751 125.061 45.0213C124.991 44.0675 124.839 43.2243 124.616 42.4916C124.38 41.759 124.047 41.1784 123.588 40.7499C123.13 40.3214 122.491 40.1002 121.671 40.1002C118.222 40.1002 117.156 43.6747 117.156 46.5833C117.156 46.9427 116.822 47.1362 116.156 47.1362C115.489 47.1362 114.766 46.9842 113.961 46.6939C112.504 46.1693 110.765 45.0515 110.765 43.3072C110.765 41.054 113.204 39.7 114.989 38.9391C117.22 37.9874 119.731 37.4462 122.157 37.4462C124.172 37.4462 125.797 37.612 127.062 37.93C128.312 38.2479 129.284 38.6764 129.979 39.2294C130.66 39.7685 131.146 40.4043 131.424 41.1093C131.702 41.8143 131.855 42.5608 131.91 43.321V64.5535C131.91 64.8299 131.938 65.2032 132.007 65.6732C132.077 66.157 132.23 66.6131 132.452 67.0417C132.674 67.4702 132.994 67.8572 133.383 68.2028C133.46 68.2711 134.048 68.6866 134.967 68.6866ZM123.338 62.2312C123.824 61.7474 124.213 61.2221 124.505 60.6553C124.797 60.0886 125.019 59.5633 125.158 59.1071V51.145C124.241 51.145 123.255 51.3109 122.213 51.6564C118.935 52.7292 115.937 55.2744 115.294 58.8307C115.058 60.1577 115.294 61.3465 115.947 62.3971C117.617 65.0279 121.522 63.9867 123.338 62.2312Z" fill="white"/>
<path d="M171.155 70.4004C168.557 70.4004 165.04 70.4769 162.847 68.7693C162.208 68.2716 161.792 67.6496 161.611 66.9308C161.43 66.1981 161.333 65.4102 161.333 64.5394V50.3429C161.333 47.5556 160.183 43.8598 156.846 43.8598C156.151 43.8598 155.456 44.1225 154.776 44.6478C153.431 45.6649 152.308 47.0561 151.608 48.6012C151.289 49.3062 151.122 49.8176 151.122 50.1356V64.5394C151.122 65.8876 151.495 67.2736 152.525 68.1887C152.914 68.5343 153.456 68.7001 154.137 68.7001C154.78 68.7001 154.839 70.4142 154.15 70.4142H141.397C140.709 70.4142 140.767 68.7001 141.411 68.7001C142.091 68.7001 142.633 68.5343 143.022 68.1887C144.053 67.2728 144.425 65.8887 144.425 64.5394V43.3069C144.425 41.959 144.052 40.5725 143.022 39.6576C142.633 39.312 142.091 39.1461 141.411 39.1461C140.767 39.1461 140.709 37.432 141.397 37.432C143.411 37.432 145.023 37.5426 146.245 37.7776C147.468 38.0126 148.427 38.3306 149.135 38.7314C151.242 39.9233 151.15 42.3303 151.15 44.3989C151.511 43.6663 151.969 42.8922 152.497 42.0766C153.025 41.2611 153.636 40.5008 154.317 39.8235C157.505 36.7147 163.022 36.3953 165.793 40.4179C167.154 42.3946 167.918 45.1454 168.099 48.6427V64.5394C168.099 64.8158 168.127 65.189 168.196 65.659C168.266 66.1429 168.418 66.599 168.641 67.0275C169.166 68.0392 170.032 68.7001 171.183 68.7001C172.156 68.7001 171.916 70.4004 171.155 70.4004Z" fill="white"/>
<path d="M193.649 20.716C185.11 16.9583 178.877 9.27173 177.117 0C175.363 9.27173 169.13 16.9583 160.585 20.716C158.921 21.4459 154.787 22.5749 154.787 22.5749C154.787 22.5749 158.927 23.6982 160.585 24.4338C169.125 28.1915 175.358 35.8781 177.117 45.1498C178.872 35.8781 185.104 28.1915 193.649 24.4338C195.313 23.7039 199.448 22.5749 199.448 22.5749C199.448 22.5749 195.308 21.4516 193.649 20.716Z" fill="#F9C719"/>
</svg>
