<svg width="23" height="18" viewBox="0 0 23 18" fill="none" xmlns="http://www.w3.org/2000/svg">
<g opacity="0.5" clip-path="url(#clip0_114_1505)">
<path d="M4.05677 17.9073V16.7852C4.09992 16.3968 3.79783 16.0947 3.40942 16.0515C3.36626 16.0515 3.36626 16.0515 3.32311 16.0515C3.06417 16.0515 2.80523 16.1378 2.67576 16.3968C2.54629 16.181 2.33051 16.0515 2.07157 16.0515C1.85579 16.0515 1.64 16.1378 1.55369 16.3105V16.0947H1.16528V17.9073H1.55369V16.8715C1.51053 16.6557 1.68316 16.4399 1.9421 16.3968H1.98526C2.24419 16.3968 2.37366 16.5694 2.37366 16.8715V17.9073H2.76207V16.8715C2.71892 16.6557 2.89154 16.4399 3.15048 16.3968H3.19364C3.45258 16.3968 3.58205 16.5694 3.58205 16.8715V17.9073H4.05677ZM10.0124 16.0947H9.36501V15.5336H8.93345V16.0947H8.54504V16.4399H8.93345V17.2599C8.93345 17.6915 9.10607 17.9504 9.5808 17.9504C9.75342 17.9504 9.92605 17.9073 10.0987 17.8209L9.9692 17.4757C9.88289 17.5188 9.75342 17.562 9.62395 17.562C9.40817 17.562 9.36501 17.4325 9.36501 17.2599V16.4399H10.0124V16.0947ZM13.3786 16.0515C13.1628 16.0515 12.9902 16.1378 12.9038 16.3105V16.0947H12.5154V17.9073H12.9038V16.8715C12.9038 16.5694 13.0333 16.3968 13.2923 16.3968C13.3786 16.3968 13.4649 16.3968 13.5512 16.4399L13.6807 16.0515C13.5943 16.0515 13.4649 16.0515 13.3786 16.0515ZM8.2861 16.2242C8.07032 16.0947 7.81138 16.0084 7.55244 16.0515C7.07772 16.0515 6.77562 16.2673 6.77562 16.6126C6.77562 16.9147 6.99141 17.0873 7.42297 17.1304L7.5956 17.1736C7.81138 17.2168 7.89769 17.2599 7.89769 17.3462C7.89769 17.4325 7.76822 17.562 7.46613 17.562C7.25035 17.562 7.03456 17.5188 6.86194 17.3894L6.68931 17.6915C6.90509 17.8641 7.20719 17.9504 7.46613 17.9073C7.98401 17.9073 8.2861 17.6483 8.2861 17.3031C8.2861 16.9578 8.02716 16.8283 7.63875 16.742L7.46613 16.6989C7.2935 16.6989 7.16403 16.6557 7.16403 16.5262C7.16403 16.3968 7.2935 16.3105 7.50928 16.3105C7.72507 16.3105 7.89769 16.3536 8.07032 16.4831L8.2861 16.2242ZM18.9026 16.0515C18.6868 16.0515 18.5142 16.1378 18.4279 16.3105V16.0947H18.0395V17.9073H18.4279V16.8715C18.4279 16.5694 18.5573 16.3968 18.8163 16.3968C18.9026 16.3968 18.9889 16.3968 19.0752 16.4399L19.2047 16.0515C19.1184 16.0515 18.9889 16.0515 18.9026 16.0515ZM13.8101 17.001C13.8101 17.5188 14.1985 17.9504 14.7164 17.9504C14.7596 17.9504 14.7596 17.9504 14.8027 17.9504C15.0617 17.9504 15.2774 17.8641 15.4501 17.7346L15.2775 17.4325C15.148 17.5188 14.9754 17.6052 14.8027 17.6052C14.5006 17.562 14.2417 17.3031 14.2849 16.9578C14.328 16.6557 14.5438 16.4399 14.8027 16.4399C14.9754 16.4399 15.148 16.4831 15.2775 16.6126L15.4501 16.3105C15.2774 16.181 15.0185 16.0947 14.8027 16.0947C14.2849 16.0515 13.8533 16.4399 13.8101 17.001C13.8101 16.9578 13.8101 16.9578 13.8101 17.001ZM17.5216 17.001V16.0947H17.1332V16.3105C17.0037 16.1378 16.7879 16.0515 16.5721 16.0515C16.0543 16.0947 15.6659 16.5694 15.709 17.0873C15.7522 17.562 16.0974 17.9073 16.5721 17.9504C16.7879 17.9504 17.0037 17.8641 17.1332 17.6915V17.9073H17.5216V17.001ZM16.0543 17.001C16.0543 16.6989 16.3132 16.4831 16.6153 16.4831C16.9174 16.4831 17.1332 16.742 17.1332 17.0441C17.1332 17.3462 16.8742 17.562 16.5721 17.562C16.2701 17.562 16.0543 17.3462 16.0543 17.001ZM11.2207 16.0515C10.7029 16.0515 10.2713 16.4831 10.2713 17.001C10.2713 17.5188 10.7029 17.9504 11.2207 17.9504C11.4797 17.9504 11.7818 17.8641 11.9544 17.6915L11.7818 17.3894C11.6523 17.5188 11.4365 17.562 11.2639 17.562C11.005 17.6052 10.746 17.3894 10.7029 17.1304H12.0839C12.0839 17.0873 12.0839 17.0441 12.0839 17.001C12.127 16.5262 11.7818 16.0947 11.3071 16.0515C11.3071 16.0515 11.2639 16.0515 11.2207 16.0515ZM11.2207 16.3968C11.4797 16.3968 11.6523 16.5694 11.6955 16.8283H10.746C10.7892 16.5694 11.005 16.3968 11.2207 16.3968ZM21.1899 17.001V15.361H20.8015V16.3105C20.672 16.1378 20.4562 16.0515 20.2404 16.0515C19.7226 16.0947 19.3342 16.5694 19.3773 17.0873C19.4205 17.562 19.7657 17.9073 20.2404 17.9504C20.4562 17.9504 20.672 17.8641 20.8015 17.6915V17.9073H21.1899V17.001ZM19.7226 17.001C19.7226 16.6989 19.9815 16.4831 20.2836 16.4831C20.5857 16.4831 20.8015 16.742 20.8015 17.0441C20.8015 17.3462 20.5425 17.562 20.2404 17.562C19.9384 17.562 19.6794 17.3462 19.7226 17.001ZM6.3009 17.001V16.0947H5.9125V16.3105C5.78303 16.1378 5.56724 16.0515 5.35146 16.0515C4.83358 16.0947 4.44518 16.5694 4.48833 17.0873C4.53149 17.562 4.87674 17.9073 5.35146 17.9504C5.56724 17.9504 5.78303 17.8641 5.9125 17.6915V17.9073H6.3009V17.001ZM4.83358 17.001C4.83358 16.6989 5.09252 16.4831 5.39462 16.4831C5.69671 16.4831 5.9125 16.742 5.9125 17.0441C5.9125 17.3462 5.65356 17.562 5.35146 17.562C5.09252 17.562 4.83358 17.3462 4.83358 17.001Z" fill="white"/>
<path d="M14.1552 2.15515H8.15649V12.9874H14.1552V2.15515Z" fill="white"/>
<path d="M8.50185 7.54977C8.50185 5.4351 9.45129 3.4499 11.1344 2.15521C8.15659 -0.175242 3.84095 0.342635 1.46734 3.32043C-0.863109 6.29823 -0.345231 10.6139 2.63257 12.9875C5.13564 14.9295 8.63132 14.9295 11.1344 12.9875C9.45129 11.6928 8.50185 9.66443 8.50185 7.54977Z" fill="white"/>
<path d="M22.2686 7.5497C22.2686 11.3475 19.2045 14.4116 15.4068 14.4116C13.8531 14.4116 12.3858 13.8937 11.1774 12.9443C14.1121 10.6138 14.63 6.29817 12.2995 3.32037C11.9543 2.88881 11.5658 2.5004 11.1343 2.15515C14.1121 -0.175303 18.4709 0.342574 20.8013 3.32037C21.7508 4.52875 22.2686 6.03923 22.2686 7.5497Z" fill="white"/>
</g>
<defs>
<clipPath id="clip0_114_1505">
<rect width="22.2687" height="17.2626" fill="white" transform="translate(0 0.687805)"/>
</clipPath>
</defs>
</svg>
