<svg width="1642" height="272" viewBox="0 0 1642 272" fill="none" xmlns="http://www.w3.org/2000/svg">
<g clip-path="url(#clip0_844_956)">
<path d="M1518.66 141.257L1553.2 106.718L1518.66 72.1777" stroke="white" stroke-width="4" stroke-linecap="round" stroke-linejoin="round"/>
<path d="M540.13 35.0455V18.8182H604.605V35.0455H582.292V93H562.443V35.0455H540.13ZM687.701 55.9091C687.701 64.1676 686.095 71.1342 682.884 76.8089C679.672 82.4595 675.338 86.7457 669.88 89.6676C664.423 92.5653 658.338 94.0142 651.625 94.0142C644.863 94.0142 638.754 92.5533 633.296 89.6314C627.863 86.6854 623.541 82.3871 620.329 76.7365C617.142 71.0618 615.548 64.1193 615.548 55.9091C615.548 47.6506 617.142 40.696 620.329 35.0455C623.541 29.3707 627.863 25.0845 633.296 22.1868C638.754 19.2649 644.863 17.804 651.625 17.804C658.338 17.804 664.423 19.2649 669.88 22.1868C675.338 25.0845 679.672 29.3707 682.884 35.0455C686.095 40.696 687.701 47.6506 687.701 55.9091ZM666.982 55.9091C666.982 51.4659 666.391 47.723 665.208 44.6804C664.049 41.6136 662.322 39.2955 660.028 37.7258C657.758 36.1321 654.957 35.3352 651.625 35.3352C648.292 35.3352 645.479 36.1321 643.185 37.7258C640.915 39.2955 639.188 41.6136 638.005 44.6804C636.846 47.723 636.267 51.4659 636.267 55.9091C636.267 60.3523 636.846 64.1072 638.005 67.174C639.188 70.2166 640.915 72.5348 643.185 74.1286C645.479 75.6982 648.292 76.483 651.625 76.483C654.957 76.483 657.758 75.6982 660.028 74.1286C662.322 72.5348 664.049 70.2166 665.208 67.174C666.391 64.1072 666.982 60.3523 666.982 55.9091ZM704.159 93V18.8182H736.179C741.685 18.8182 746.502 19.9048 750.631 22.0781C754.761 24.2514 757.972 27.3061 760.266 31.2422C762.56 35.1783 763.707 39.7784 763.707 45.0426C763.707 50.3551 762.524 54.9553 760.158 58.843C757.815 62.7308 754.519 65.7251 750.269 67.826C746.043 69.9268 741.105 70.9773 735.455 70.9773H716.33V55.3295H731.398C733.764 55.3295 735.781 54.919 737.447 54.098C739.137 53.2528 740.429 52.0575 741.323 50.5121C742.24 48.9666 742.699 47.1435 742.699 45.0426C742.699 42.9176 742.24 41.1065 741.323 39.6094C740.429 38.0881 739.137 36.929 737.447 36.1321C735.781 35.3111 733.764 34.9006 731.398 34.9006H724.298V93H704.159ZM822.137 18.8182H842.276V66.3409C842.276 71.9915 840.924 76.8814 838.22 81.0107C835.539 85.1158 831.796 88.2912 826.991 90.5369C822.186 92.7585 816.607 93.8693 810.257 93.8693C803.857 93.8693 798.255 92.7585 793.45 90.5369C788.644 88.2912 784.901 85.1158 782.221 81.0107C779.565 76.8814 778.237 71.9915 778.237 66.3409V18.8182H798.376V64.6023C798.376 66.8963 798.883 68.9489 799.897 70.7599C800.911 72.5469 802.312 73.9474 804.099 74.9616C805.91 75.9759 807.963 76.483 810.257 76.483C812.575 76.483 814.627 75.9759 816.414 74.9616C818.201 73.9474 819.602 72.5469 820.616 70.7599C821.63 68.9489 822.137 66.8963 822.137 64.6023V18.8182ZM886.448 93V18.8182H938.607V35.0455H906.588V47.7955H935.42V64.0227H906.588V93H886.448ZM973.294 18.8182V93H953.155V18.8182H973.294ZM989.978 93V18.8182H1022C1027.5 18.8182 1032.32 19.8203 1036.45 21.8246C1040.58 23.8288 1043.79 26.7145 1046.09 30.4815C1048.38 34.2486 1049.53 38.7642 1049.53 44.0284C1049.53 49.3409 1048.34 53.8203 1045.98 57.4666C1043.63 61.1129 1040.34 63.8658 1036.09 65.7251C1031.86 67.5845 1026.92 68.5142 1021.27 68.5142H1002.15V52.8665H1017.22C1019.58 52.8665 1021.6 52.5767 1023.27 51.9972C1024.96 51.3935 1026.25 50.4396 1027.14 49.1357C1028.06 47.8317 1028.52 46.1293 1028.52 44.0284C1028.52 41.9034 1028.06 40.1768 1027.14 38.8487C1026.25 37.4964 1024.96 36.5064 1023.27 35.8785C1021.6 35.2266 1019.58 34.9006 1017.22 34.9006H1010.12V93H989.978ZM1033.44 58.9517L1051.99 93H1030.11L1012 58.9517H1033.44ZM1065.25 93V18.8182H1085.39V76.7727H1115.38V93H1065.25ZM1149.93 93H1128.2L1152.69 18.8182H1180.21L1204.7 93H1182.97L1166.74 39.2472H1166.16L1149.93 93ZM1145.88 63.733H1186.73V78.8011H1145.88V63.733ZM1207.59 35.0455V18.8182H1272.07V35.0455H1249.75V93H1229.91V35.0455H1207.59ZM1306.93 18.8182V93H1286.79V18.8182H1306.93ZM1387.79 18.8182V93H1370.99L1344.18 54.0256H1343.75V93H1323.61V18.8182H1340.71L1367.08 57.6477H1367.66V18.8182H1387.79ZM165.627 142.818L180.84 195.122H181.419L196.632 142.818H219.38L194.894 217H167.365L142.88 142.818H165.627ZM233.664 217V142.818H287.127V159.045H253.803V171.795H284.375V188.023H253.803V200.773H286.982V217H233.664ZM331.716 217V142.818H363.881C369.531 142.818 374.276 143.579 378.116 145.1C381.979 146.621 384.889 148.771 386.845 151.548C388.825 154.325 389.815 157.597 389.815 161.364C389.815 164.092 389.212 166.58 388.004 168.825C386.821 171.071 385.155 172.955 383.006 174.476C380.856 175.973 378.345 177.011 375.471 177.591V178.315C378.659 178.436 381.557 179.245 384.165 180.742C386.773 182.215 388.849 184.256 390.395 186.864C391.94 189.447 392.713 192.49 392.713 195.991C392.713 200.048 391.65 203.658 389.525 206.822C387.425 209.985 384.43 212.472 380.542 214.283C376.655 216.094 372.018 217 366.633 217H331.716ZM351.855 200.918H361.273C364.653 200.918 367.189 200.29 368.879 199.034C370.569 197.754 371.415 195.871 371.415 193.384C371.415 191.645 371.016 190.172 370.219 188.964C369.422 187.757 368.288 186.839 366.814 186.212C365.366 185.584 363.615 185.27 361.562 185.27H351.855V200.918ZM351.855 172.81H360.114C361.876 172.81 363.434 172.532 364.786 171.977C366.138 171.421 367.189 170.624 367.937 169.586C368.71 168.523 369.096 167.232 369.096 165.71C369.096 163.416 368.275 161.665 366.633 160.458C364.991 159.227 362.915 158.611 360.403 158.611H351.855V172.81ZM478.852 179.909C478.852 188.168 477.246 195.134 474.035 200.809C470.823 206.46 466.489 210.746 461.031 213.668C455.574 216.565 449.489 218.014 442.776 218.014C436.014 218.014 429.905 216.553 424.447 213.631C419.014 210.685 414.692 206.387 411.48 200.737C408.293 195.062 406.699 188.119 406.699 179.909C406.699 171.651 408.293 164.696 411.48 159.045C414.692 153.371 419.014 149.085 424.447 146.187C429.905 143.265 436.014 141.804 442.776 141.804C449.489 141.804 455.574 143.265 461.031 146.187C466.489 149.085 470.823 153.371 474.035 159.045C477.246 164.696 478.852 171.651 478.852 179.909ZM458.133 179.909C458.133 175.466 457.542 171.723 456.359 168.68C455.2 165.614 453.473 163.295 451.179 161.726C448.909 160.132 446.108 159.335 442.776 159.335C439.443 159.335 436.63 160.132 434.336 161.726C432.066 163.295 430.339 165.614 429.156 168.68C427.997 171.723 427.418 175.466 427.418 179.909C427.418 184.352 427.997 188.107 429.156 191.174C430.339 194.217 432.066 196.535 434.336 198.129C436.63 199.698 439.443 200.483 442.776 200.483C446.108 200.483 448.909 199.698 451.179 198.129C453.473 196.535 455.2 194.217 456.359 191.174C457.542 188.107 458.133 184.352 458.133 179.909ZM559.495 142.818V217H542.688L515.884 178.026H515.449V217H495.31V142.818H512.407L538.776 181.648H539.356V142.818H559.495ZM620.062 142.818H640.201V190.341C640.201 195.991 638.849 200.881 636.144 205.011C633.464 209.116 629.721 212.291 624.915 214.537C620.11 216.759 614.532 217.869 608.181 217.869C601.782 217.869 596.18 216.759 591.374 214.537C586.569 212.291 582.826 209.116 580.146 205.011C577.489 200.881 576.161 195.991 576.161 190.341V142.818H596.3V188.602C596.3 190.896 596.807 192.949 597.822 194.76C598.836 196.547 600.236 197.947 602.023 198.962C603.834 199.976 605.887 200.483 608.181 200.483C610.499 200.483 612.552 199.976 614.339 198.962C616.126 197.947 617.526 196.547 618.54 194.76C619.555 192.949 620.062 190.896 620.062 188.602V142.818ZM696.901 166C696.708 163.585 695.802 161.702 694.184 160.349C692.591 158.997 690.164 158.321 686.904 158.321C684.827 158.321 683.125 158.575 681.797 159.082C680.493 159.565 679.527 160.229 678.899 161.074C678.271 161.919 677.945 162.885 677.921 163.972C677.873 164.865 678.03 165.674 678.392 166.398C678.778 167.099 679.382 167.739 680.203 168.318C681.024 168.874 682.074 169.381 683.354 169.839C684.634 170.298 686.155 170.709 687.918 171.071L694.003 172.375C698.108 173.244 701.622 174.391 704.544 175.816C707.466 177.241 709.856 178.919 711.716 180.851C713.575 182.759 714.939 184.908 715.809 187.298C716.702 189.689 717.161 192.297 717.185 195.122C717.161 200 715.942 204.129 713.527 207.51C711.112 210.891 707.659 213.462 703.167 215.225C698.7 216.988 693.327 217.869 687.049 217.869C680.601 217.869 674.975 216.915 670.17 215.008C665.388 213.1 661.67 210.166 659.013 206.206C656.381 202.222 655.053 197.126 655.029 190.92H674.154C674.275 193.19 674.842 195.098 675.856 196.643C676.871 198.189 678.295 199.36 680.131 200.157C681.99 200.954 684.199 201.352 686.759 201.352C688.908 201.352 690.707 201.087 692.156 200.555C693.605 200.024 694.704 199.288 695.452 198.346C696.201 197.404 696.587 196.33 696.611 195.122C696.587 193.987 696.213 192.997 695.488 192.152C694.788 191.283 693.629 190.51 692.011 189.834C690.393 189.134 688.208 188.482 685.455 187.878L678.066 186.284C671.498 184.859 666.318 182.481 662.527 179.148C658.76 175.792 656.888 171.216 656.912 165.42C656.888 160.712 658.144 156.594 660.68 153.069C663.239 149.519 666.777 146.754 671.292 144.774C675.832 142.794 681.036 141.804 686.904 141.804C692.893 141.804 698.072 142.806 702.443 144.81C706.814 146.815 710.182 149.64 712.549 153.286C714.939 156.908 716.147 161.146 716.171 166H696.901ZM775.887 142.818H796.026V190.341C796.026 195.991 794.674 200.881 791.969 205.011C789.289 209.116 785.546 212.291 780.74 214.537C775.935 216.759 770.357 217.869 764.006 217.869C757.607 217.869 752.005 216.759 747.199 214.537C742.394 212.291 738.651 209.116 735.97 205.011C733.314 200.881 731.986 195.991 731.986 190.341V142.818H752.125V188.602C752.125 190.896 752.632 192.949 753.647 194.76C754.661 196.547 756.061 197.947 757.848 198.962C759.659 199.976 761.712 200.483 764.006 200.483C766.324 200.483 768.377 199.976 770.164 198.962C771.951 197.947 773.351 196.547 774.365 194.76C775.38 192.949 775.887 190.896 775.887 188.602V142.818ZM876.922 142.818V217H860.115L833.311 178.026H832.877V217H812.737V142.818H829.834L856.203 181.648H856.783V142.818H876.922ZM937.489 142.818H957.628V190.341C957.628 195.991 956.276 200.881 953.571 205.011C950.891 209.116 947.148 212.291 942.343 214.537C937.537 216.759 931.959 217.869 925.608 217.869C919.209 217.869 913.607 216.759 908.801 214.537C903.996 212.291 900.253 209.116 897.573 205.011C894.917 200.881 893.588 195.991 893.588 190.341V142.818H913.728V188.602C913.728 190.896 914.235 192.949 915.249 194.76C916.263 196.547 917.664 197.947 919.451 198.962C921.262 199.976 923.314 200.483 925.608 200.483C927.926 200.483 929.979 199.976 931.766 198.962C933.553 197.947 934.953 196.547 935.968 194.76C936.982 192.949 937.489 190.896 937.489 188.602V142.818ZM974.629 217V205.844L1009.69 159.045H974.774V142.818H1035.34V153.974L1000.27 200.773H1035.19V217H974.629ZM1096.2 142.818H1116.34V190.341C1116.34 195.991 1114.99 200.881 1112.28 205.011C1109.6 209.116 1105.86 212.291 1101.06 214.537C1096.25 216.759 1090.67 217.869 1084.32 217.869C1077.92 217.869 1072.32 216.759 1067.52 214.537C1062.71 212.291 1058.97 209.116 1056.29 205.011C1053.63 200.881 1052.3 195.991 1052.3 190.341V142.818H1072.44V188.602C1072.44 190.896 1072.95 192.949 1073.96 194.76C1074.98 196.547 1076.38 197.947 1078.16 198.962C1079.98 199.976 1082.03 200.483 1084.32 200.483C1086.64 200.483 1088.69 199.976 1090.48 198.962C1092.27 197.947 1093.67 196.547 1094.68 194.76C1095.7 192.949 1096.2 190.896 1096.2 188.602V142.818ZM1179.78 217H1158.05L1182.54 142.818H1210.06L1234.55 217H1212.82L1196.59 163.247H1196.01L1179.78 217ZM1175.73 187.733H1216.58V202.801H1175.73V187.733ZM1248.84 217V142.818H1268.97V200.773H1298.97V217H1248.84ZM1334.39 142.818V217H1314.25V142.818H1334.39ZM1415.25 142.818V217H1398.45L1371.64 178.026H1371.21V217H1351.07V142.818H1368.17L1394.54 181.648H1395.12V142.818H1415.25Z" fill="white"/>
</g>
<defs>
<clipPath id="clip0_844_956">
<rect width="1642" height="272" fill="white"/>
</clipPath>
</defs>
</svg>
