<svg width="72" height="27" viewBox="0 0 72 27" fill="none" xmlns="http://www.w3.org/2000/svg">
<g opacity="0.5" clip-path="url(#clip0_546_8036)">
<path d="M0.0958252 9.55533V13.3087L10.5187 12.1955V8.13184" fill="white"/>
<path d="M3.4209 13.537V26.4001H7.2375V13.1598" fill="white"/>
<path d="M11.9276 7.94032V26.4001H15.9477V7.39282" fill="white"/>
<path d="M16.696 7.28935V11.5355L22.5039 10.915V6.49548" fill="white"/>
<path d="M16.696 14.6957V19.0209L20.5064 18.8171V14.3763" fill="white"/>
<path d="M16.696 22.1387V26.4001H22.5039V21.9653" fill="white"/>
<path d="M37.5198 4.43939V26.4001H42.786V3.72156" fill="white"/>
<path d="M43.7754 3.58466V8.63683L51.4556 7.81559V2.53833" fill="white"/>
<path d="M43.7754 12.4359V17.5793L48.8099 17.3147V12.0161" fill="white"/>
<path d="M43.7754 21.3418V26.4H51.4556V21.1167" fill="white"/>
<path d="M24.038 6.28565V26.4001H28.6185V5.66211" fill="white"/>
<path d="M29.4733 21.7616V26.4001H36.1234V21.5669" fill="white"/>
<path d="M68.6757 2.28883C67.01 0.758882 64.5679 0.132303 61.8972 0.506426V6.10914C62.9805 6.05135 63.8541 6.44372 64.2454 7.22847C64.8622 8.46642 64.2266 10.3249 62.7238 12.0464C60.4069 14.7018 54.2452 20.1372 54.2452 20.1372L63.0901 19.8543C68.4941 14.7231 70.4353 11.6115 70.7828 7.72425C70.9675 5.6681 70.1973 3.68799 68.6757 2.28883Z" fill="white"/>
<path d="M53.1556 21.062L53.1588 26.4001H71.0958V20.5358" fill="white"/>
<path d="M60.8671 0.631226C55.6542 1.70797 53.0962 5.43399 53.3936 11.5112L58.9479 11.0337C58.6974 7.59964 59.7776 6.78448 60.8703 6.33736" fill="white"/>
</g>
<defs>
<clipPath id="clip0_546_8036">
<rect width="71" height="26" fill="white" transform="translate(0.0958252 0.400024)"/>
</clipPath>
</defs>
</svg>
